<svg width="217" height="40" viewBox="0 0 217 40" fill="none" xmlns="http://www.w3.org/2000/svg">
<path d="M22.8273 31.0445H17.2332V25.4504H6.04486V31.0445H0.471191V14.2825C0.471191 12.7457 0.758071 11.2908 1.35232 9.91787C1.94657 8.56544 2.72525 7.37693 3.72933 6.35236C4.73341 5.34828 5.92191 4.54911 7.27435 3.95486C8.62678 3.36061 10.0817 3.07373 11.639 3.07373C13.1759 3.07373 14.6308 3.36061 16.0037 3.95486C17.3561 4.54911 18.5446 5.34828 19.5692 6.35236C20.5733 7.35644 21.3725 8.54494 21.9667 9.91787C22.561 11.2703 22.8478 12.7252 22.8478 14.2825V31.0445H22.8273ZM17.2332 19.8767V14.2825C17.2332 13.5244 17.0897 12.7867 16.8029 12.1105C16.516 11.4342 16.1062 10.84 15.6144 10.3277C15.0816 9.8359 14.4873 9.42607 13.8111 9.13919C13.1349 8.85231 12.3972 8.70887 11.639 8.70887C10.8808 8.70887 10.1431 8.85231 9.46693 9.13919C8.79071 9.42607 8.19646 9.8359 7.68418 10.3277C7.17189 10.84 6.78255 11.4342 6.49567 12.1105C6.20879 12.7867 6.06535 13.5244 6.06535 14.2825V19.8767H17.2332Z" fill="white"/>
<path d="M59.1587 20.43C59.1587 22.0693 58.8718 23.5652 58.3185 24.9176C57.7653 26.2701 57.0071 27.4381 56.044 28.4012C55.0809 29.3643 53.9539 30.1225 52.6629 30.6552C51.3719 31.188 49.9785 31.4544 48.5031 31.4544C47.0278 31.4544 45.6548 31.188 44.3639 30.6347C43.0729 30.0815 41.9459 29.3233 40.9828 28.3602C40.0197 27.3766 39.2615 26.2291 38.6877 24.8766C38.1345 23.5242 37.8476 22.0488 37.8476 20.4505V1.88525H43.1959V11.6187C43.4827 11.2498 43.8311 10.922 44.2409 10.6351C44.6508 10.3482 45.1016 10.1228 45.5729 9.93839C46.0442 9.75396 46.536 9.61052 47.0482 9.52856C47.5605 9.4261 48.0523 9.38512 48.5236 9.38512C49.999 9.38512 51.3924 9.65151 52.6834 10.2048C53.9744 10.758 55.1014 11.5367 56.0645 12.5203C57.0276 13.5039 57.7858 14.6719 58.339 16.0243C58.8718 17.3563 59.1587 18.8317 59.1587 20.43ZM53.8104 20.43C53.8104 19.6308 53.667 18.8727 53.4006 18.1759C53.1137 17.4792 52.7449 16.885 52.2531 16.3727C51.7818 15.8604 51.208 15.4711 50.5728 15.1842C49.9375 14.8973 49.2408 14.7539 48.5236 14.7539C47.7859 14.7539 47.1097 14.9178 46.4745 15.2252C45.8393 15.553 45.2655 15.9629 44.7942 16.4956C44.3229 17.0284 43.9335 17.6227 43.6672 18.2989C43.4008 18.9751 43.2573 19.6923 43.2573 20.4095C43.2573 21.2087 43.4008 21.9669 43.6672 22.6431C43.9335 23.3398 44.3229 23.934 44.7942 24.4258C45.2655 24.9381 45.8393 25.3275 46.4745 25.6143C47.1097 25.9012 47.8064 26.0447 48.5236 26.0447C49.2408 26.0447 49.9375 25.9012 50.5728 25.6143C51.208 25.3275 51.7818 24.9176 52.2531 24.4258C52.7244 23.9135 53.1137 23.3193 53.4006 22.6431C53.667 21.9874 53.8104 21.2292 53.8104 20.43Z" fill="white"/>
<path d="M62.2733 7.00809C62.6012 7.33595 62.97 7.58185 63.4004 7.76628C63.8307 7.9507 64.302 8.05315 64.7938 8.05315C65.2856 8.05315 65.7569 7.9507 66.1872 7.76628C66.6175 7.58185 67.0069 7.31546 67.3347 7.00809C67.6626 6.68023 67.9085 6.31138 68.1134 5.88106C68.2978 5.45074 68.4003 4.99993 68.4003 4.48764C68.4003 4.01634 68.2978 3.54504 68.1134 3.11472C67.929 2.6844 67.6626 2.29506 67.3347 1.98769C67.0069 1.65983 66.638 1.41393 66.1872 1.22951C65.7569 1.04508 65.2856 0.942627 64.7938 0.942627C64.302 0.942627 63.8307 1.04508 63.4004 1.22951C62.97 1.41393 62.5807 1.68032 62.2733 1.98769C61.9455 2.31555 61.6996 2.6844 61.5152 3.11472C61.3307 3.54504 61.2283 4.01634 61.2283 4.48764C61.2283 4.97944 61.3307 5.45074 61.5152 5.88106C61.6996 6.31138 61.9455 6.70072 62.2733 7.00809Z" fill="#E3163D"/>
<path d="M67.4782 10.1843H62.1094V31.0651H67.4782V10.1843Z" fill="white"/>
<path d="M91.7195 28.4216C91.7195 29.897 91.4327 31.2699 90.8794 32.5608C90.3261 33.8518 89.5474 34.9788 88.5844 35.9419C87.6213 36.905 86.4942 37.6632 85.2033 38.2165C83.9123 38.7697 82.5394 39.0566 81.064 39.0566L78.4001 39.0156V33.6879L81.023 33.7289C81.8632 33.7289 82.5599 33.6264 83.1541 33.401C83.7484 33.1756 84.2402 32.8887 84.6295 32.5199C85.0393 32.151 85.3467 31.7207 85.5926 31.2494C85.8385 30.7781 86.0229 30.2658 86.1664 29.733C85.9614 30.0609 85.6541 30.3478 85.2647 30.5527C84.8754 30.7576 84.4451 30.942 83.9738 31.0855C83.5025 31.2289 83.0107 31.3109 82.4984 31.3723C81.9861 31.4338 81.5148 31.4543 81.064 31.4543C79.5886 31.4543 78.2157 31.2084 76.9247 30.6961C75.6338 30.1838 74.5067 29.4666 73.5436 28.524C72.5805 27.5814 71.8224 26.4339 71.2486 25.061C70.6953 23.688 70.4084 22.1512 70.4084 20.4504C70.4084 18.8726 70.6953 17.4177 71.2486 16.0652C71.8019 14.7128 72.5805 13.5448 73.5436 12.5612C74.5067 11.5776 75.6338 10.7989 76.9247 10.2457C78.2157 9.6924 79.5886 9.40552 81.064 9.40552C81.7402 9.40552 82.4164 9.48748 83.0722 9.65141C83.7279 9.81535 84.3836 10.0612 84.9984 10.3481C85.6131 10.6555 86.2073 11.0038 86.7811 11.3932C87.3549 11.803 87.8672 12.2333 88.3794 12.7046L90.4491 10.2252H91.74V28.4216H91.7195ZM86.3713 20.4299C86.3713 19.7127 86.2278 18.9955 85.9614 18.3193C85.6746 17.6431 85.3057 17.0283 84.8139 16.516C84.3426 15.9833 83.7689 15.5734 83.1336 15.2456C82.4984 14.9177 81.8017 14.7743 81.0845 14.7743C80.3468 14.7743 79.6706 14.8972 79.0353 15.1431C78.4001 15.389 77.8263 15.7579 77.355 16.2292C76.8837 16.7005 76.5149 17.2947 76.228 18.0119C75.9616 18.7291 75.8182 19.5283 75.8182 20.4299C75.8182 21.2905 75.9616 22.0897 76.228 22.7864C76.4944 23.4831 76.8837 24.0774 77.355 24.5692C77.8263 25.061 78.3796 25.4503 79.0353 25.7167C79.6706 25.9831 80.3673 26.106 81.0845 26.106C81.8017 26.106 82.4984 25.9421 83.1336 25.6347C83.7689 25.3069 84.3426 24.897 84.8139 24.3643C85.2852 23.8315 85.6746 23.2372 85.9614 22.561C86.2278 21.8643 86.3713 21.1471 86.3713 20.4299Z" fill="white"/>
<path d="M125.182 14.3234L121.289 18.2373C121.084 17.684 120.817 17.1922 120.49 16.7619C120.162 16.3316 119.772 15.9627 119.342 15.6554C118.912 15.348 118.461 15.1226 117.969 14.9792C117.477 14.8152 116.965 14.7537 116.453 14.7537C115.715 14.7537 115.039 14.8972 114.404 15.2046C113.768 15.5119 113.195 15.9218 112.723 16.4545C112.252 16.9873 111.883 17.643 111.596 18.3807C111.33 19.1184 111.186 19.9381 111.186 20.8397C111.186 21.5774 111.33 22.2536 111.596 22.8888C111.863 23.5241 112.252 24.0774 112.723 24.5691C113.195 25.0404 113.748 25.4298 114.404 25.6962C115.039 25.9626 115.736 26.106 116.453 26.106C116.965 26.106 117.477 26.0445 117.949 25.9011C118.42 25.7576 118.871 25.5527 119.301 25.2863C119.731 25.02 120.1 24.6921 120.428 24.3028C120.756 23.9134 121.022 23.5036 121.227 23.0323L125.121 26.9462C124.629 27.6429 124.055 28.2781 123.42 28.8314C122.785 29.3846 122.088 29.8559 121.33 30.2453C120.592 30.6346 119.793 30.9215 118.973 31.1264C118.154 31.3313 117.293 31.4338 116.432 31.4338C114.957 31.4338 113.584 31.1674 112.293 30.6141C111.002 30.0609 109.875 29.3027 108.912 28.3396C107.949 27.3765 107.191 26.2494 106.617 24.9585C106.064 23.6675 105.777 22.2946 105.777 20.8192C105.777 19.2209 106.064 17.725 106.617 16.3316C107.17 14.9382 107.949 13.7292 108.912 12.7046C109.875 11.68 111.002 10.8604 112.293 10.2661C113.584 9.67187 114.957 9.3645 116.432 9.3645C117.293 9.3645 118.153 9.46696 118.994 9.69236C119.834 9.91777 120.633 10.2251 121.391 10.6555C122.149 11.0858 122.846 11.5981 123.502 12.2128C124.157 12.8276 124.711 13.5448 125.182 14.3234Z" fill="white"/>
<path d="M147.661 31.0444H146.37L144.301 28.1756C143.788 28.6265 143.256 29.0568 142.702 29.4461C142.128 29.8354 141.534 30.1838 140.92 30.4707C140.305 30.7576 139.649 31.0035 138.993 31.1674C138.338 31.3313 137.661 31.4133 137.006 31.4133C135.53 31.4133 134.157 31.1674 132.866 30.6756C131.575 30.1838 130.448 29.4666 129.485 28.524C128.522 27.5814 127.764 26.4339 127.19 25.0609C126.637 23.688 126.35 22.1512 126.35 20.4094C126.35 18.7906 126.637 17.2947 127.19 15.9423C127.744 14.5898 128.522 13.4218 129.485 12.4382C130.448 11.4546 131.575 10.7169 132.866 10.1637C134.157 9.63089 135.53 9.3645 137.006 9.3645C137.682 9.3645 138.358 9.44647 139.014 9.6104C139.67 9.77433 140.325 10.0202 140.94 10.3071C141.555 10.6145 142.149 10.9628 142.723 11.3522C143.297 11.762 143.809 12.1923 144.321 12.6636L146.391 10.1842H147.682V31.0444H147.661ZM142.313 20.4299C142.313 19.7127 142.169 18.9955 141.903 18.3193C141.616 17.643 141.247 17.0283 140.756 16.516C140.284 15.9832 139.711 15.5734 139.075 15.2455C138.44 14.9177 137.743 14.7742 137.026 14.7742C136.288 14.7742 135.612 14.8972 134.977 15.1431C134.342 15.389 133.768 15.7578 133.297 16.2291C132.825 16.7004 132.457 17.2947 132.17 18.0119C131.903 18.7291 131.76 19.5283 131.76 20.4299C131.76 21.3315 131.903 22.1512 132.17 22.8479C132.436 23.5651 132.825 24.1593 133.297 24.6306C133.768 25.1019 134.321 25.4708 134.977 25.7167C135.612 25.9626 136.309 26.0855 137.026 26.0855C137.743 26.0855 138.44 25.9216 139.075 25.6142C139.711 25.2863 140.284 24.8765 140.756 24.3437C141.227 23.811 141.616 23.2167 141.903 22.5405C142.169 21.8643 142.313 21.1471 142.313 20.4299Z" fill="white"/>
<path d="M157.046 31.0445H151.718V10.1842H153.009L154.772 12.2129C155.632 11.4342 156.595 10.84 157.681 10.4096C158.768 9.97933 159.895 9.77441 161.083 9.77441C162.354 9.77441 163.562 10.0203 164.69 10.5121C165.817 11.0039 166.8 11.6596 167.661 12.5203C168.501 13.3809 169.177 14.3645 169.648 15.512C170.14 16.639 170.386 17.8685 170.386 19.139V31.065H165.058V19.1185C165.058 18.5652 164.956 18.053 164.751 17.5612C164.546 17.0694 164.259 16.639 163.89 16.2907C163.522 15.9218 163.112 15.635 162.62 15.4301C162.149 15.2251 161.616 15.1227 161.083 15.1227C160.53 15.1227 159.997 15.2251 159.505 15.4301C159.013 15.635 158.583 15.9218 158.214 16.2907C157.845 16.6595 157.559 17.0899 157.354 17.5612C157.149 18.053 157.046 18.5652 157.046 19.1185V31.0445Z" fill="white"/>
<path d="M194.32 31.0446H193.029L190.96 28.1758C190.447 28.6266 189.914 29.0569 189.361 29.4462C188.787 29.8356 188.193 30.1839 187.578 30.4708C186.964 30.7577 186.308 31.0036 185.652 31.1675C184.997 31.3314 184.32 31.4134 183.665 31.4134C182.189 31.4134 180.816 31.147 179.525 30.5938C178.234 30.0405 177.107 29.2823 176.144 28.2987C175.181 27.3151 174.423 26.1471 173.849 24.8152C173.296 23.4627 173.009 22.0078 173.009 20.43C173.009 18.8522 173.296 17.3973 173.849 16.0448C174.402 14.6924 175.181 13.5244 176.144 12.5408C177.107 11.5572 178.234 10.7785 179.525 10.2253C180.816 9.672 182.189 9.38512 183.665 9.38512C184.136 9.38512 184.607 9.4261 185.119 9.50807C185.611 9.59003 186.103 9.71298 186.574 9.8974C187.046 10.0818 187.497 10.3072 187.906 10.5941C188.316 10.881 188.665 11.2293 188.951 11.6392V1.88525H194.32V31.0446ZM188.972 20.43C188.972 19.7128 188.828 18.9956 188.562 18.3194C188.275 17.6432 187.906 17.0284 187.415 16.5161C186.943 15.9834 186.369 15.5735 185.734 15.2457C185.099 14.9178 184.402 14.7744 183.685 14.7744C182.947 14.7744 182.271 14.8973 181.636 15.1637C181.001 15.4301 180.427 15.7989 179.956 16.2907C179.484 16.7825 179.116 17.3768 178.829 18.0735C178.562 18.7702 178.419 19.5694 178.419 20.4505C178.419 21.2087 178.562 21.9464 178.829 22.6431C179.095 23.3398 179.484 23.934 179.956 24.4463C180.427 24.9586 180.98 25.3684 181.636 25.6758C182.271 25.9832 182.968 26.1266 183.685 26.1266C184.402 26.1266 185.099 25.9627 185.734 25.6553C186.369 25.3275 186.943 24.9176 187.415 24.3848C187.886 23.8521 188.275 23.2578 188.562 22.5816C188.828 21.8644 188.972 21.1472 188.972 20.43Z" fill="white"/>
<path d="M203.398 38.9953V33.6265L206.369 33.6675C206.881 33.6675 207.394 33.5855 207.865 33.4216C208.336 33.2577 208.787 33.0118 209.197 32.7249C209.607 32.4175 209.976 32.0692 210.283 31.6594C210.59 31.2495 210.857 30.7987 211.041 30.3274C210.447 30.5733 209.853 30.8192 209.258 31.0651C208.664 31.311 208.049 31.4339 207.435 31.4339C206.144 31.4339 204.935 31.2085 203.808 30.7577C202.681 30.3069 201.677 29.6512 200.836 28.811C199.976 27.9709 199.32 26.9463 198.828 25.7578C198.336 24.5488 198.091 23.2169 198.091 21.721V10.1843H203.398V21.721C203.398 22.4587 203.5 23.1144 203.726 23.6677C203.931 24.221 204.238 24.6718 204.586 25.0611C204.955 25.43 205.386 25.7168 205.857 25.8808C206.349 26.0652 206.861 26.1472 207.435 26.1472C207.988 26.1472 208.5 26.0242 208.992 25.7578C209.484 25.5119 209.914 25.1636 210.262 24.7537C210.631 24.3439 210.918 23.8726 211.123 23.3398C211.328 22.807 211.43 22.2743 211.43 21.721V10.1843H216.799V28.4217C216.779 29.8971 216.492 31.27 215.939 32.561C215.385 33.8519 214.607 34.979 213.644 35.9421C212.68 36.9052 211.553 37.6633 210.262 38.2166C208.972 38.7699 207.599 39.0568 206.123 39.0568L203.398 38.9953Z" fill="white"/>
<path d="M73.0109 36.8435H0.471191V39.0361H73.0109V36.8435Z" fill="#E3163D"/>
<path d="M198.111 36.8435H105.797V39.0361H198.111V36.8435Z" fill="#E3163D"/>
</svg>
