<?xml version="1.0" standalone="no"?>
<!DOCTYPE svg PUBLIC "-//W3C//DTD SVG 20010904//EN"
 "http://www.w3.org/TR/2001/REC-SVG-20010904/DTD/svg10.dtd">
<svg version="1.0" xmlns="http://www.w3.org/2000/svg"
 width="7246.000000pt" height="827.000000pt" viewBox="0 0 7246.000000 827.000000"
 preserveAspectRatio="xMidYMid meet">
<metadata>
Created by potrace 1.13, written by Peter Selinger 2001-2015
</metadata>
<g transform="translate(0.000000,827.000000) scale(0.100000,-0.100000)"
fill="#f47d31" stroke="none">
<path d="M1515 5423 c-251 -12 -496 -72 -682 -166 -165 -84 -352 -246 -466
-405 -236 -329 -367 -825 -367 -1392 0 -1056 446 -1686 1260 -1780 134 -16
429 -7 530 15 311 69 592 236 727 433 34 49 38 52 42 31 2 -13 1 -154 -2 -314
-5 -305 -22 -459 -67 -628 -89 -337 -256 -552 -525 -678 -109 -51 -275 -94
-430 -110 -140 -14 -436 -7 -649 16 -77 8 -141 13 -143 12 -1 -2 24 -95 56
-208 l58 -204 54 -7 c264 -33 641 -34 849 -3 302 46 552 149 748 311 245 201
416 517 496 916 61 299 58 209 67 2103 5 957 12 1792 17 1855 4 63 5 118 2
123 -4 4 -112 6 -241 5 l-234 -3 -6 -55 c-4 -30 -10 -90 -14 -133 -8 -90 -5
-89 -91 -24 -263 197 -640 308 -989 290z m371 -424 c210 -40 441 -132 598
-238 l77 -52 -4 -917 c-3 -892 -4 -919 -24 -1002 -45 -181 -107 -305 -214
-429 -113 -131 -256 -218 -444 -268 -91 -24 -117 -26 -285 -27 -160 0 -197 3
-274 22 -351 88 -585 346 -695 764 -116 441 -101 1068 34 1458 121 346 317
554 617 654 173 58 422 72 614 35z"/>
<path d="M4925 5423 c-217 -18 -430 -50 -616 -94 l-126 -30 -7 -206 c-4 -113
-5 -207 -3 -210 2 -2 61 12 132 32 155 42 339 79 506 100 174 23 471 30 596
16 363 -42 607 -209 715 -489 53 -136 69 -229 75 -441 l6 -194 -74 7 c-307 27
-708 29 -1019 5 -505 -38 -850 -161 -1070 -378 -178 -176 -268 -395 -290 -707
-49 -703 385 -1183 1145 -1265 330 -35 732 48 999 209 86 51 222 173 256 228
15 23 29 34 45 34 25 0 26 -2 41 -262 l6 -108 249 0 250 0 -6 128 c-4 70 -9
134 -12 142 -4 8 -9 546 -13 1195 -8 1284 -5 1226 -66 1440 -117 412 -420 692
-868 801 -175 42 -305 54 -569 52 -133 -1 -260 -3 -282 -5z m1238 -1869 l37
-6 0 -302 c0 -165 -5 -341 -11 -391 -48 -390 -221 -656 -517 -792 -222 -103
-579 -130 -822 -62 -206 57 -377 193 -463 369 -71 144 -82 196 -82 390 0 190
11 246 76 378 123 251 388 385 839 422 111 9 878 4 943 -6z"/>
<path d="M9037 5424 c-286 -42 -606 -157 -852 -307 l-90 -55 -7 36 c-4 20 -7
66 -8 102 0 36 -3 82 -6 103 l-7 37 -254 0 -254 0 6 -47 c26 -221 28 -372 32
-1955 l4 -1668 249 0 250 0 0 1508 0 1507 83 47 c147 83 343 164 539 223 309
93 622 98 871 15 123 -42 189 -81 268 -159 103 -102 163 -247 189 -454 6 -52
10 -557 10 -1384 l0 -1303 255 0 256 0 -4 1388 c-4 1462 -3 1421 -47 1595 -15
59 -22 53 155 141 212 106 477 187 724 222 164 23 381 15 512 -19 357 -93 531
-309 569 -706 6 -64 10 -600 10 -1363 l0 -1258 250 0 251 0 -4 1388 c-4 1497
-2 1447 -57 1641 -108 383 -413 625 -903 718 -146 28 -503 25 -662 -5 -153
-29 -308 -70 -460 -122 -130 -44 -409 -177 -490 -233 l-50 -34 -65 67 c-162
168 -437 290 -760 335 -135 18 -369 18 -503 -1z"/>
<path d="M25523 5419 c-717 -49 -1190 -466 -1372 -1210 -62 -253 -75 -380 -75
-734 -1 -339 5 -409 51 -630 47 -227 133 -441 244 -610 74 -112 252 -286 362
-354 170 -105 374 -174 590 -201 139 -18 435 -8 548 19 312 72 570 227 711
426 l50 70 -5 -300 c-5 -330 -20 -476 -67 -661 -118 -470 -381 -710 -870 -796
-104 -18 -541 -15 -730 5 -79 9 -146 14 -148 12 -5 -4 108 -399 116 -407 12
-12 371 -38 520 -38 422 0 754 83 1019 255 106 69 277 238 347 344 154 232
253 534 302 921 16 121 18 316 25 1885 4 963 11 1792 15 1843 l6 92 -241 0
c-135 0 -241 -4 -241 -9 0 -22 -21 -219 -26 -243 l-6 -28 -46 39 c-132 109
-353 216 -551 266 -178 45 -331 58 -528 44z m403 -414 c227 -40 476 -139 647
-258 l58 -41 -4 -905 c-4 -978 -2 -951 -58 -1121 -83 -251 -275 -459 -507
-549 -136 -52 -227 -66 -422 -65 -155 0 -186 3 -271 26 -421 113 -664 461
-739 1058 -19 145 -24 453 -11 615 49 605 238 969 599 1149 79 40 214 82 307
95 101 14 306 12 401 -4z"/>
<path d="M34462 5415 c-266 -41 -507 -138 -704 -286 -96 -71 -254 -241 -326
-349 -166 -250 -277 -570 -324 -935 -19 -150 -16 -559 6 -720 79 -587 304
-986 701 -1245 289 -188 658 -285 1130 -297 188 -4 244 -2 385 16 200 26 461
77 476 94 11 12 80 394 73 402 -2 1 -53 -10 -114 -26 -280 -73 -625 -110 -857
-91 -531 44 -899 268 -1103 672 -99 197 -143 376 -169 688 l-6 62 1239 0
c1172 0 1240 1 1245 18 3 9 12 103 22 207 20 228 15 552 -10 685 -55 293 -165
520 -341 708 -188 200 -407 321 -693 383 -127 28 -487 36 -630 14z m520 -389
c378 -96 619 -412 657 -863 7 -77 7 -160 1 -238 -5 -66 -10 -126 -10 -132 0
-10 -206 -13 -995 -13 -547 0 -995 2 -995 5 0 44 27 226 46 314 67 298 186
525 368 699 143 136 303 214 503 247 125 20 301 13 425 -19z"/>
<path d="M29740 6864 c-107 -30 -212 -59 -232 -65 l-38 -10 0 -2559 0 -2560
250 0 250 0 0 1523 0 1524 98 51 c309 161 701 262 1017 262 280 0 502 -71 645
-207 77 -72 123 -145 162 -255 59 -168 58 -128 58 -1574 l0 -1324 250 0 250 0
0 1358 c0 923 -4 1386 -11 1447 -48 397 -219 651 -548 815 -298 149 -739 191
-1143 109 -235 -47 -494 -140 -681 -243 l-97 -54 0 909 c0 859 -1 909 -17 908
-10 0 -106 -25 -213 -55z"/>
<path d="M21965 5433 c-344 -42 -708 -167 -966 -332 -35 -22 -65 -39 -66 -37
-2 1 -7 49 -13 107 -6 57 -13 119 -16 137 l-5 32 -250 0 -250 0 6 -62 c23
-252 28 -532 32 -2000 l5 -1608 249 0 249 0 0 1509 0 1510 148 74 c228 115
464 198 697 244 128 25 427 25 545 -1 169 -36 325 -117 411 -214 84 -95 147
-265 168 -456 7 -62 11 -537 11 -1381 l0 -1285 255 0 255 0 0 1334 c0 856 -4
1371 -10 1437 -33 325 -146 561 -344 719 -172 136 -400 227 -666 265 -95 13
-364 18 -445 8z"/>
<path d="M17925 6899 c-16 -4 -128 -30 -247 -59 l-218 -52 0 -2559 0 -2559
255 0 255 0 0 2614 c0 1438 -3 2617 -7 2619 -5 2 -21 1 -38 -4z"/>
<path d="M19099 6774 c-125 -38 -202 -135 -203 -257 -1 -87 24 -146 86 -202
162 -145 467 -91 548 97 46 107 10 242 -82 309 -86 62 -243 86 -349 53z"/>
<path d="M14035 6865 c-104 -29 -209 -58 -232 -64 l-41 -11 -5 -2352 c-5
-2122 -8 -2430 -29 -2723 l-3 -40 221 -3 222 -2 6 22 c3 13 11 82 17 153 6 72
13 136 15 143 2 8 32 -12 80 -53 184 -161 411 -272 674 -330 105 -23 344 -30
482 -15 745 81 1187 579 1315 1480 26 179 25 722 0 895 -42 284 -104 493 -207
700 -200 403 -520 646 -967 736 -151 30 -462 38 -623 15 -231 -32 -435 -95
-607 -187 l-93 -50 0 871 c0 822 -1 870 -17 869 -10 -1 -103 -25 -208 -54z
m1280 -1845 c440 -63 718 -326 840 -795 54 -210 68 -352 69 -700 1 -342 -7
-441 -50 -648 -92 -440 -308 -722 -639 -835 -151 -51 -362 -73 -506 -53 -230
33 -510 171 -693 342 l-76 71 0 1198 0 1199 43 25 c112 68 411 160 614 190
117 17 301 19 398 6z"/>
<path d="M37195 6885 c-49 -13 -161 -40 -247 -60 l-158 -37 0 -2559 0 -2559
255 0 255 0 0 2620 c0 1441 -3 2620 -7 2619 -5 0 -48 -11 -98 -24z"/>
<path d="M18970 3505 l0 -1835 255 0 255 0 0 1835 0 1835 -255 0 -255 0 0
-1835z"/>
<path d="M39615 5424 c-312 -46 -616 -169 -842 -341 l-82 -62 -5 27 c-3 15 -7
63 -11 107 -3 44 -8 106 -11 138 l-6 57 -240 0 -241 0 7 -112 c22 -357 26
-796 26 -2835 0 -1239 3 -2253 8 -2253 4 1 117 31 252 68 l245 67 3 823 2 824
50 -45 c195 -176 542 -302 860 -314 449 -18 841 128 1135 422 256 255 416 609
490 1085 36 230 31 714 -11 1000 -84 584 -347 1002 -754 1202 -209 103 -368
139 -645 143 -110 2 -213 1 -230 -1z m350 -433 c256 -68 459 -239 587 -496
133 -264 198 -653 185 -1100 -19 -628 -193 -1044 -529 -1262 -231 -149 -570
-200 -865 -128 -212 51 -429 161 -570 289 l-53 48 0 1157 0 1158 23 20 c36 34
186 128 272 171 144 71 307 126 470 158 107 21 377 12 480 -15z"/>
<path d="M45210 5019 c-669 -40 -1283 -234 -1732 -549 -118 -82 -330 -292
-395 -390 -71 -107 -129 -225 -159 -327 -63 -215 -48 -852 31 -1308 106 -617
331 -960 640 -976 28 -1 642 -2 1366 -1 l1315 2 -7 68 c-34 317 -37 1060 -6
1192 47 194 131 379 245 540 84 119 314 351 449 453 198 150 429 284 685 397
71 32 132 60 135 63 8 8 -90 108 -182 187 -537 456 -1450 705 -2385 649z"/>
<path d="M45315 8259 c-443 -61 -827 -301 -1072 -671 -255 -387 -318 -857
-172 -1301 175 -534 627 -923 1184 -1019 167 -28 430 -22 585 15 877 208 1381
1103 1099 1952 -76 229 -193 418 -364 590 -213 213 -480 357 -774 416 -113 23
-379 33 -486 18z"/>
</g>
<g transform="translate(0.000000,827.000000) scale(0.100000,-0.100000)"
fill="#ffd24f" stroke="none">
<path d="M63884 7441 c-114 -28 -248 -196 -317 -396 -79 -230 -179 -683 -291
-1330 -207 -1192 -307 -2053 -336 -2900 -17 -478 5 -814 66 -1005 21 -69 34
-91 74 -131 52 -52 88 -65 168 -57 69 7 120 35 188 104 69 69 101 136 110 233
4 33 -5 148 -20 281 -40 352 -47 462 -53 820 -8 444 11 726 88 1335 74 585
167 1054 314 1575 125 443 224 866 250 1070 34 255 -21 383 -170 403 -22 3
-54 2 -71 -2z"/>
<path d="M49350 7944 c-14 -2 -59 -9 -99 -15 -673 -100 -1257 -634 -1424
-1304 -41 -162 -51 -250 -51 -435 0 -184 10 -273 50 -432 107 -428 379 -807
754 -1050 537 -349 1246 -373 1805 -61 447 249 758 665 869 1164 133 598 -58
1227 -502 1651 -270 257 -607 421 -975 473 -91 13 -360 18 -427 9z"/>
<path d="M71445 5509 c-178 -18 -375 -82 -546 -180 -476 -272 -971 -919 -1191
-1559 -68 -199 -109 -378 -133 -586 -16 -134 -19 -430 -6 -521 4 -29 7 -53 6
-53 -1 0 -16 5 -33 11 -26 9 -43 6 -119 -24 -201 -80 -314 -71 -403 29 -93
106 -139 313 -225 1002 -76 610 -138 870 -260 1087 -74 133 -206 246 -333 285
-73 23 -220 27 -318 9 -142 -26 -317 -121 -453 -245 -85 -78 -217 -241 -327
-405 -158 -234 -259 -410 -509 -884 -252 -480 -375 -687 -414 -700 -28 -8 -50
4 -57 32 -12 46 6 195 51 438 127 677 193 1120 202 1365 10 266 -19 422 -92
495 -46 47 -98 65 -182 65 -50 0 -66 -5 -101 -29 -49 -36 -121 -135 -164 -227
l-32 -69 -8 -275 c-19 -722 -63 -1204 -169 -1842 -80 -484 -84 -602 -23 -725
47 -98 156 -153 301 -153 88 0 159 33 254 119 130 118 268 348 758 1264 241
451 443 780 575 939 141 169 329 276 447 254 57 -10 124 -62 168 -127 103
-154 166 -416 216 -899 73 -708 142 -1027 255 -1176 55 -73 146 -139 228 -165
52 -16 92 -21 177 -21 207 0 350 58 496 202 50 49 97 106 111 134 l25 50 18
-55 c50 -152 165 -325 284 -425 172 -145 382 -218 661 -231 457 -21 914 155
1350 520 155 129 328 307 398 409 108 158 151 303 122 410 -14 49 -34 68 -74
68 -43 0 -59 -13 -251 -199 -184 -179 -303 -278 -461 -384 -198 -132 -397
-223 -597 -273 -140 -35 -387 -45 -503 -19 -177 38 -309 135 -386 280 -51 98
-71 181 -72 300 -1 92 1 104 26 146 38 65 78 97 219 174 714 392 1286 830
1527 1171 80 112 164 282 198 399 35 123 45 323 19 410 -53 187 -204 337 -375
374 -74 16 -180 20 -275 10z m42 -460 c39 -14 91 -67 102 -103 34 -108 20
-201 -50 -341 -122 -247 -422 -527 -924 -862 -111 -74 -402 -255 -452 -281
-21 -12 -21 -11 8 101 122 466 326 838 634 1156 227 233 409 338 592 340 34 1
74 -4 90 -10z"/>
<path d="M56426 6679 c-780 -69 -1593 -711 -2123 -1677 -414 -757 -606 -1542
-503 -2054 97 -475 452 -984 830 -1187 183 -98 335 -127 620 -118 687 23 1137
174 1643 553 422 317 834 735 1113 1129 361 510 594 1149 594 1629 0 331 -51
630 -136 799 -137 274 -433 542 -789 717 -266 130 -505 187 -880 210 -191 11
-228 11 -369 -1z m355 -439 c530 -54 995 -323 1150 -666 140 -308 123 -842
-41 -1335 -209 -625 -742 -1307 -1323 -1690 -358 -237 -698 -358 -1096 -389
-158 -12 -234 -8 -358 21 -320 73 -618 367 -726 714 -42 134 -52 217 -51 405
3 673 304 1391 888 2115 106 132 339 369 451 460 242 196 489 318 715 355 41
6 82 13 90 15 37 7 207 4 301 -5z"/>
<path d="M65465 7300 c-111 -18 -200 -66 -291 -155 -86 -84 -118 -150 -117
-241 1 -83 31 -210 79 -331 19 -48 41 -113 50 -143 9 -30 25 -68 36 -83 19
-27 25 -29 68 -24 67 8 199 61 270 109 70 47 138 135 180 236 36 86 98 319
106 397 7 77 -13 110 -97 165 -98 63 -189 86 -284 70z"/>
<path d="M64795 5226 c-68 -31 -126 -123 -160 -251 -9 -33 -20 -121 -25 -195
-9 -140 -39 -334 -115 -745 -122 -657 -189 -1139 -216 -1545 -37 -553 65 -809
315 -788 72 6 150 46 217 111 85 84 86 87 50 279 -46 245 -53 320 -52 590 2
604 53 931 272 1731 150 547 156 580 122 658 -26 58 -76 106 -143 137 -67 32
-215 42 -265 18z"/>
<path d="M59122 5141 c-81 -59 -185 -227 -197 -315 -2 -23 -9 -201 -15 -396
-19 -650 -63 -1112 -164 -1712 -72 -427 -80 -566 -41 -677 46 -130 170 -199
342 -189 57 3 80 10 128 38 179 108 306 302 785 1200 443 831 631 1111 844
1259 60 41 165 81 215 81 182 0 313 -241 385 -705 8 -55 29 -230 46 -390 61
-578 129 -915 216 -1063 104 -177 285 -258 515 -232 50 6 119 20 152 31 206
68 407 275 407 419 0 64 -27 111 -72 128 -35 14 -42 13 -125 -21 -156 -62
-249 -70 -331 -28 -150 78 -198 247 -302 1081 -61 484 -107 709 -186 915 -92
238 -252 402 -434 444 -64 15 -224 13 -301 -3 -336 -72 -624 -366 -1001 -1021
-41 -71 -150 -274 -243 -450 -367 -699 -443 -813 -495 -750 -29 34 -16 144 75
635 148 799 192 1181 166 1422 -27 243 -83 316 -250 326 -72 4 -78 2 -119 -27z"/>
<path d="M49160 4159 c-804 -53 -1536 -296 -2045 -678 -125 -94 -312 -281
-388 -388 -106 -149 -184 -317 -223 -483 -22 -89 -30 -562 -15 -815 64 -1049
313 -1652 727 -1759 56 -14 289 -16 2281 -16 2423 0 2268 -4 2387 56 316 158
516 641 601 1444 8 80 20 271 26 425 25 593 -21 821 -223 1117 -73 107 -237
282 -353 375 -640 516 -1702 793 -2775 722z"/>
</g>
</svg>
